{
  "accessors": [
    {
      "bufferView": 2,
      "componentType": 5126,
      "count": 99,
      "max": [
        0.9749299883842468,
        1.0,
        0.758109986782074
      ],
      "min": [
        -0.9749299883842468,
        -1.0,
        -0.5986400246620178
      ],
      "type": "VEC3"
    },
    {
      "bufferView": 2,
      "byteOffset": 1188,
      "componentType": 5126,
      "count": 99,
      "max": [
        0.8906486630439758,
        0.9135507941246033,
        1.0
      ],
      "min": [
        -0.8906486630439758,
        -0.9135507941246033,
        -0.9959962368011475
      ],
      "type": "VEC3"
    },
    {
      "bufferView": 1,
      "componentType": 5126,
      "count": 99,
      "max": [
        0.9741100072860718,
        0.9746999740600586
      ],
      "min": [
        0.0459199994802475,
        0.02776000089943409
      ],
      "type": "VEC2"
    },
    {
      "bufferView": 0,
      "componentType": 5125,
      "count": 462,
      "type": "SCALAR"
    },
    {
      "bufferView": 2,
      "byteOffset": 2376,
      "componentType": 5126,
      "count": 50,
      "max": [
        0.05479000136256218,
        0.05761000141501427,
        0.09227000176906586
      ],
      "min": [
        -0.05479000136256218,
        -0.05761000141501427,
        -0.1540600061416626
      ],
      "type": "VEC3"
    },
    {
      "bufferView": 2,
      "byteOffset": 2976,
      "componentType": 5126,
      "count": 50,
      "max": [
        0.9510610103607178,
        1.0,
        0.7505653500556946
      ],
      "min": [
        -0.9510610103607178,
        -1.0,
        0.0
      ],
      "type": "VEC3"
    },
    {
      "bufferView": 0,
      "byteOffset": 1848,
      "componentType": 5125,
      "count": 240,
      "type": "SCALAR"
    },
    {
      "bufferView": 2,
      "byteOffset": 3576,
      "componentType": 5126,
      "count": 172,
      "max": [
        0.03333999961614609,
        0.0340300016105175,
        0.06606999784708023
      ],
      "min": [
        -0.03328000009059906,
        -0.034060001373291016,
        -0.11218000203371048
      ],
      "type": "VEC3"
    },
    {
      "bufferView": 2,
      "byteOffset": 5640,
      "componentType": 5126,
      "count": 172,
      "max": [
        0.9783792495727539,
        0.9998998045921326,
        0.009700257331132889
      ],
      "min": [
        -0.9782837629318237,
        -0.9998475313186646,
        -0.7656092643737793
      ],
      "type": "VEC3"
    },
    {
      "bufferView": 1,
      "byteOffset": 792,
      "componentType": 5126,
      "count": 172,
      "max": [
        0.9052900075912476,
        0.890749990940094
      ],
      "min": [
        0.06492000073194504,
        0.17839999496936798
      ],
      "type": "VEC2"
    },
    {
      "bufferView": 0,
      "byteOffset": 2808,
      "componentType": 5125,
      "count": 672,
      "type": "SCALAR"
    },
    {
      "bufferView": 2,
      "byteOffset": 7704,
      "componentType": 5126,
      "count": 169,
      "max": [
        1.0,
        0.9749299883842468,
        1.7911299467086792
      ],
      "min": [
        -1.0,
        -0.9749299883842468,
        -1.0
      ],
      "type": "VEC3"
    },
    {
      "bufferView": 2,
      "byteOffset": 9732,
      "componentType": 5126,
      "count": 169,
      "max": [
        1.0,
        0.9749294519424438,
        0.41723546385765076
      ],
      "min": [
        -1.0,
        -0.9749294519424438,
        -1.0
      ],
      "type": "VEC3"
    },
    {
      "bufferView": 1,
      "byteOffset": 2168,
      "componentType": 5126,
      "count": 169,
      "max": [
        0.6108700037002563,
        0.8499100208282471
      ],
      "min": [
        0.30564001202583313,
        0.4239400029182434
      ],
      "type": "VEC2"
    },
    {
      "bufferView": 0,
      "byteOffset": 5496,
      "componentType": 5125,
      "count": 966,
      "type": "SCALAR"
    },
    {
      "bufferView": 2,
      "byteOffset": 11760,
      "componentType": 5126,
      "count": 40,
      "max": [
        0.014270000159740448,
        0.2863300144672394,
        1.855049967765808
      ],
      "min": [
        -0.029349999502301216,
        -0.32971999049186707,
        0.49779999256134033
      ],
      "type": "VEC3"
    },
    {
      "bufferView": 2,
      "byteOffset": 12240,
      "componentType": 5126,
      "count": 40,
      "max": [
        0.956541121006012,
        0.7227896451950073,
        0.7321017384529114
      ],
      "min": [
        -0.9431419372558594,
        -0.7227896451950073,
        -0.73115074634552
      ],
      "type": "VEC3"
    },
    {
      "bufferView": 0,
      "byteOffset": 9360,
      "componentType": 5125,
      "count": 216,
      "type": "SCALAR"
    }
  ],
  "asset": {
    "extras": {
      "author": "watercat (https://sketchfab.com/watercat)",
      "license": "CC-BY-4.0 (http://creativecommons.org/licenses/by/4.0/)",
      "source": "https://sketchfab.com/3d-models/laba-e09e568205cc497eb35be13157526740",
      "title": "Laba"
    },
    "generator": "Sketchfab-12.67.0",
    "version": "2.0"
  },
  "bufferViews": [
    {
      "buffer": 0,
      "byteLength": 10224,
      "name": "floatBufferViews",
      "target": 34963
    },
    {
      "buffer": 0,
      "byteLength": 3520,
      "byteOffset": 10224,
      "byteStride": 8,
      "name": "floatBufferViews",
      "target": 34962
    },
    {
      "buffer": 0,
      "byteLength": 12720,
      "byteOffset": 13744,
      "byteStride": 12,
      "name": "floatBufferViews",
      "target": 34962
    }
  ],
  "buffers": [
    {
      "byteLength": 26464,
      "uri": "scene.bin"
    }
  ],
  "materials": [
    {
      "doubleSided": true,
      "name": "Sphere_0",
      "pbrMetallicRoughness": {
        "metallicFactor": 0.0,
        "roughnessFactor": 0.6
      }
    },
    {
      "doubleSided": true,
      "name": "Material",
      "pbrMetallicRoughness": {
        "baseColorFactor": [
          0.0,
          0.0,
          0.0,
          1.0
        ],
        "metallicFactor": 0.0,
        "roughnessFactor": 0.6
      }
    },
    {
      "doubleSided": true,
      "name": "Material.001",
      "pbrMetallicRoughness": {
        "baseColorFactor": [
          0.0,
          0.0,
          0.0,
          1.0
        ],
        "metallicFactor": 0.0,
        "roughnessFactor": 0.6
      }
    }
  ],
  "meshes": [
    {
      "name": "Cone_0",
      "primitives": [
        {
          "attributes": {
            "NORMAL": 1,
            "POSITION": 0,
            "TEXCOORD_0": 2
          },
          "indices": 3,
          "material": 0,
          "mode": 4
        }
      ]
    },
    {
      "name": "Cone.001_0",
      "primitives": [
        {
          "attributes": {
            "NORMAL": 5,
            "POSITION": 4
          },
          "indices": 6,
          "material": 2,
          "mode": 4
        }
      ]
    },
    {
      "name": "Cone.002_0",
      "primitives": [
        {
          "attributes": {
            "NORMAL": 8,
            "POSITION": 7,
            "TEXCOORD_0": 9
          },
          "indices": 10,
          "material": 0,
          "mode": 4
        }
      ]
    },
    {
      "name": "Sphere_0",
      "primitives": [
        {
          "attributes": {
            "NORMAL": 12,
            "POSITION": 11,
            "TEXCOORD_0": 13
          },
          "indices": 14,
          "material": 0,
          "mode": 4
        }
      ]
    },
    {
      "name": "Sphere.001_0",
      "primitives": [
        {
          "attributes": {
            "NORMAL": 16,
            "POSITION": 15
          },
          "indices": 17,
          "material": 1,
          "mode": 4
        }
      ]
    }
  ],
  "nodes": [
    {
      "children": [
        1
      ],
      "matrix": [
        1.0,
        0.0,
        0.0,
        0.0,
        0.0,
        2.220446049250313e-16,
        -1.0,
        0.0,
        0.0,
        1.0,
        2.220446049250313e-16,
        0.0,
        0.0,
        0.0,
        0.0,
        1.0
      ],
      "name": "Sketchfab_model"
    },
    {
      "children": [
        2,
        4,
        6,
        8,
        10
      ],
      "name": "Root"
    },
    {
      "children": [
        3
      ],
      "matrix": [
        1.0,
        0.0,
        0.0,
        0.0,
        0.0,
        1.0,
        0.0,
        0.0,
        0.0,
        0.0,
        0.3739200000000001,
        0.0,
        0.0,
        0.0,
        3.9988499999999996,
        1.0
      ],
      "name": "Cone"
    },
    {
      "mesh": 0,
      "name": "Cone_0"
    },
    {
      "children": [
        5
      ],
      "matrix": [
        1.0,
        0.0,
        0.0,
        0.0,
        0.0,
        1.0,
        0.0,
        0.0,
        0.0,
        0.0,
        8.512730000000001,
        0.0,
        0.0,
        0.0,
        5.55152,
        1.0
      ],
      "name": "Cone.001"
    },
    {
      "mesh": 1,
      "name": "Cone.001_0"
    },
    {
      "children": [
        7
      ],
      "matrix": [
        1.3442,
        0.0,
        0.0,
        0.0,
        0.0,
        1.3442,
        0.0,
        0.0,
        0.0,
        0.0,
        0.5026200000000001,
        0.0,
        0.012670000000000002,
        2.000000000000001e-05,
        4.18144,
        1.0
      ],
      "name": "Cone.002"
    },
    {
      "mesh": 2,
      "name": "Cone.002_0"
    },
    {
      "children": [
        9
      ],
      "matrix": [
        0.08497000000000002,
        0.0,
        0.0,
        0.0,
        0.0,
        0.08497000000000002,
        0.0,
        0.0,
        0.0,
        0.0,
        0.08497000000000002,
        0.0,
        0.012730000000000003,
        0.0,
        3.9949999999999997,
        1.0
      ],
      "name": "Sphere"
    },
    {
      "mesh": 3,
      "name": "Sphere_0"
    },
    {
      "children": [
        11
      ],
      "matrix": [
        0.08497000000000002,
        0.0,
        0.0,
        0.0,
        0.0,
        0.08497000000000002,
        0.0,
        0.0,
        0.0,
        0.0,
        0.08497000000000002,
        0.0,
        0.012730000000000003,
        0.0,
        3.9949999999999997,
        1.0
      ],
      "name": "Sphere.001"
    },
    {
      "mesh": 4,
      "name": "Sphere.001_0"
    }
  ],
  "scene": 0,
  "scenes": [
    {
      "name": "Sketchfab_Scene",
      "nodes": [
        0
      ]
    }
  ]
}
